<mxfile host="app.diagrams.net" modified="2023-05-25T17:08:44.389Z" agent="Mozilla/5.0 (Windows NT 10.0; Win64; x64) AppleWebKit/537.36 (KHTML, like Gecko) Chrome/113.0.0.0 Safari/537.36 Edg/113.0.1774.50" etag="7ifVz1f3ExCz1tAvGems" version="21.3.4" type="google" pages="2">
  <diagram name="Leht-1" id="Bd39wq4LD_cT9qAeS-WL">
    <mxGraphModel grid="1" page="1" gridSize="10" guides="1" tooltips="1" connect="1" arrows="1" fold="1" pageScale="1" pageWidth="583" pageHeight="827" math="0" shadow="0">
      <root>
        <mxCell id="0" />
        <mxCell id="1" parent="0" />
        <mxCell id="PgFo0dPPJx95uKujKs5k-1" value="Start" style="rounded=1;whiteSpace=wrap;html=1;" vertex="1" parent="1">
          <mxGeometry x="220" width="120" height="60" as="geometry" />
        </mxCell>
        <mxCell id="PgFo0dPPJx95uKujKs5k-2" value="Choose an&amp;nbsp;&lt;br&gt;option" style="rhombus;whiteSpace=wrap;html=1;" vertex="1" parent="1">
          <mxGeometry x="235" y="80" width="90" height="80" as="geometry" />
        </mxCell>
        <mxCell id="PgFo0dPPJx95uKujKs5k-3" value="Reading data" style="ellipse;whiteSpace=wrap;html=1;" vertex="1" parent="1">
          <mxGeometry x="20" y="160" width="120" height="80" as="geometry" />
        </mxCell>
        <mxCell id="PgFo0dPPJx95uKujKs5k-4" value="Inserting data" style="ellipse;whiteSpace=wrap;html=1;" vertex="1" parent="1">
          <mxGeometry x="231.5" y="200" width="120" height="80" as="geometry" />
        </mxCell>
        <mxCell id="PgFo0dPPJx95uKujKs5k-5" value="Deleting data" style="ellipse;whiteSpace=wrap;html=1;" vertex="1" parent="1">
          <mxGeometry x="440" y="160" width="120" height="80" as="geometry" />
        </mxCell>
        <mxCell id="PgFo0dPPJx95uKujKs5k-6" value="" style="endArrow=none;html=1;rounded=0;exitX=1;exitY=0.25;exitDx=0;exitDy=0;exitPerimeter=0;entryX=0.171;entryY=0.693;entryDx=0;entryDy=0;entryPerimeter=0;" edge="1" parent="1" source="PgFo0dPPJx95uKujKs5k-3" target="PgFo0dPPJx95uKujKs5k-2">
          <mxGeometry width="50" height="50" relative="1" as="geometry">
            <mxPoint x="160" y="170" as="sourcePoint" />
            <mxPoint x="230" y="130" as="targetPoint" />
          </mxGeometry>
        </mxCell>
        <mxCell id="PgFo0dPPJx95uKujKs5k-7" value="" style="endArrow=none;html=1;rounded=0;entryX=0.04;entryY=0.342;entryDx=0;entryDy=0;entryPerimeter=0;" edge="1" parent="1" source="PgFo0dPPJx95uKujKs5k-2" target="PgFo0dPPJx95uKujKs5k-5">
          <mxGeometry width="50" height="50" relative="1" as="geometry">
            <mxPoint x="340" y="130" as="sourcePoint" />
            <mxPoint x="420" y="130" as="targetPoint" />
          </mxGeometry>
        </mxCell>
        <mxCell id="PgFo0dPPJx95uKujKs5k-8" value="" style="endArrow=none;html=1;rounded=0;" edge="1" parent="1">
          <mxGeometry width="50" height="50" relative="1" as="geometry">
            <mxPoint x="279.5" y="210" as="sourcePoint" />
            <mxPoint x="280" y="150" as="targetPoint" />
          </mxGeometry>
        </mxCell>
        <mxCell id="PgFo0dPPJx95uKujKs5k-11" value="r" style="text;html=1;strokeColor=none;fillColor=none;align=center;verticalAlign=middle;whiteSpace=wrap;rounded=0;" vertex="1" parent="1">
          <mxGeometry x="90" y="140" width="60" height="30" as="geometry" />
        </mxCell>
        <mxCell id="PgFo0dPPJx95uKujKs5k-12" value="i" style="text;html=1;align=center;verticalAlign=middle;resizable=0;points=[];autosize=1;strokeColor=none;fillColor=none;" vertex="1" parent="1">
          <mxGeometry x="295" y="168" width="30" height="30" as="geometry" />
        </mxCell>
        <mxCell id="PgFo0dPPJx95uKujKs5k-13" value="d" style="text;html=1;align=center;verticalAlign=middle;resizable=0;points=[];autosize=1;strokeColor=none;fillColor=none;" vertex="1" parent="1">
          <mxGeometry x="525" y="138" width="30" height="30" as="geometry" />
        </mxCell>
        <mxCell id="PgFo0dPPJx95uKujKs5k-14" value="Enter&amp;nbsp;&lt;br&gt;username" style="shape=hexagon;perimeter=hexagonPerimeter2;whiteSpace=wrap;html=1;fixedSize=1;" vertex="1" parent="1">
          <mxGeometry x="230" y="300" width="120" height="60" as="geometry" />
        </mxCell>
        <mxCell id="PgFo0dPPJx95uKujKs5k-18" value="Enter&lt;br&gt;password" style="shape=hexagon;perimeter=hexagonPerimeter2;whiteSpace=wrap;html=1;fixedSize=1;" vertex="1" parent="1">
          <mxGeometry x="230" y="380" width="120" height="61" as="geometry" />
        </mxCell>
        <mxCell id="PgFo0dPPJx95uKujKs5k-19" value="Enter&amp;nbsp;&lt;br&gt;full name" style="shape=hexagon;perimeter=hexagonPerimeter2;whiteSpace=wrap;html=1;fixedSize=1;" vertex="1" parent="1">
          <mxGeometry x="235" y="460" width="120" height="60" as="geometry" />
        </mxCell>
        <mxCell id="PgFo0dPPJx95uKujKs5k-21" value="Enter&amp;nbsp;&lt;br&gt;email&amp;nbsp;" style="shape=hexagon;perimeter=hexagonPerimeter2;whiteSpace=wrap;html=1;fixedSize=1;" vertex="1" parent="1">
          <mxGeometry x="232" y="540" width="120" height="60" as="geometry" />
        </mxCell>
        <mxCell id="PgFo0dPPJx95uKujKs5k-26" value="New user&amp;nbsp;&lt;br&gt;inserted" style="shape=process;whiteSpace=wrap;html=1;backgroundOutline=1;" vertex="1" parent="1">
          <mxGeometry x="232" y="620" width="120" height="60" as="geometry" />
        </mxCell>
        <mxCell id="PgFo0dPPJx95uKujKs5k-27" value="User deleted" style="shape=process;whiteSpace=wrap;html=1;backgroundOutline=1;" vertex="1" parent="1">
          <mxGeometry x="390" y="350" width="120" height="60" as="geometry" />
        </mxCell>
        <mxCell id="PgFo0dPPJx95uKujKs5k-28" value="Enter usename&lt;br&gt;you want to&amp;nbsp;&lt;br&gt;delete" style="shape=hexagon;perimeter=hexagonPerimeter2;whiteSpace=wrap;html=1;fixedSize=1;" vertex="1" parent="1">
          <mxGeometry x="470" y="260" width="120" height="70" as="geometry" />
        </mxCell>
        <mxCell id="PgFo0dPPJx95uKujKs5k-31" value="Do you want to&amp;nbsp;&lt;br&gt;do something&lt;br&gt;more?" style="ellipse;whiteSpace=wrap;html=1;" vertex="1" parent="1">
          <mxGeometry x="463" y="430" width="120" height="80" as="geometry" />
        </mxCell>
        <mxCell id="PgFo0dPPJx95uKujKs5k-32" value="Yes - back to menu&lt;br&gt;No - exit code" style="shape=parallelogram;perimeter=parallelogramPerimeter;whiteSpace=wrap;html=1;fixedSize=1;" vertex="1" parent="1">
          <mxGeometry x="430" y="530" width="140" height="60" as="geometry" />
        </mxCell>
        <mxCell id="PgFo0dPPJx95uKujKs5k-33" value="Invalid input" style="shape=process;whiteSpace=wrap;html=1;backgroundOutline=1;" vertex="1" parent="1">
          <mxGeometry x="540" y="350" width="120" height="60" as="geometry" />
        </mxCell>
        <mxCell id="PgFo0dPPJx95uKujKs5k-34" value="Do you want to&amp;nbsp;&lt;br&gt;do something&lt;br&gt;more?" style="ellipse;whiteSpace=wrap;html=1;" vertex="1" parent="1">
          <mxGeometry x="30" y="260" width="120" height="80" as="geometry" />
        </mxCell>
        <mxCell id="PgFo0dPPJx95uKujKs5k-35" value="Yes - back to menu&lt;br&gt;No - exit code" style="shape=parallelogram;perimeter=parallelogramPerimeter;whiteSpace=wrap;html=1;fixedSize=1;" vertex="1" parent="1">
          <mxGeometry x="15" y="360" width="150" height="60" as="geometry" />
        </mxCell>
        <mxCell id="PgFo0dPPJx95uKujKs5k-37" value="" style="endArrow=classic;html=1;rounded=0;" edge="1" parent="1">
          <mxGeometry width="50" height="50" relative="1" as="geometry">
            <mxPoint x="90" y="220" as="sourcePoint" />
            <mxPoint x="90" y="255" as="targetPoint" />
            <Array as="points" />
          </mxGeometry>
        </mxCell>
        <mxCell id="PgFo0dPPJx95uKujKs5k-38" value="" style="endArrow=classic;html=1;rounded=0;" edge="1" parent="1">
          <mxGeometry width="50" height="50" relative="1" as="geometry">
            <mxPoint x="140" y="320" as="sourcePoint" />
            <mxPoint x="140" y="360" as="targetPoint" />
          </mxGeometry>
        </mxCell>
        <mxCell id="PgFo0dPPJx95uKujKs5k-39" value="" style="endArrow=classic;html=1;rounded=0;" edge="1" parent="1">
          <mxGeometry width="50" height="50" relative="1" as="geometry">
            <mxPoint x="324" y="270" as="sourcePoint" />
            <mxPoint x="323.82" y="300" as="targetPoint" />
          </mxGeometry>
        </mxCell>
        <mxCell id="PgFo0dPPJx95uKujKs5k-40" value="" style="endArrow=classic;html=1;rounded=0;" edge="1" parent="1">
          <mxGeometry width="50" height="50" relative="1" as="geometry">
            <mxPoint x="295" y="360" as="sourcePoint" />
            <mxPoint x="295" y="380" as="targetPoint" />
          </mxGeometry>
        </mxCell>
        <mxCell id="PgFo0dPPJx95uKujKs5k-41" value="" style="endArrow=classic;html=1;rounded=0;" edge="1" parent="1">
          <mxGeometry width="50" height="50" relative="1" as="geometry">
            <mxPoint x="294" y="440" as="sourcePoint" />
            <mxPoint x="294.40999999999997" y="464" as="targetPoint" />
          </mxGeometry>
        </mxCell>
        <mxCell id="PgFo0dPPJx95uKujKs5k-42" value="" style="endArrow=classic;html=1;rounded=0;" edge="1" parent="1">
          <mxGeometry width="50" height="50" relative="1" as="geometry">
            <mxPoint x="525" y="230" as="sourcePoint" />
            <mxPoint x="525" y="258" as="targetPoint" />
          </mxGeometry>
        </mxCell>
        <mxCell id="PgFo0dPPJx95uKujKs5k-43" value="" style="endArrow=classic;html=1;rounded=0;" edge="1" parent="1">
          <mxGeometry width="50" height="50" relative="1" as="geometry">
            <mxPoint x="295" y="520" as="sourcePoint" />
            <mxPoint x="295" y="550" as="targetPoint" />
          </mxGeometry>
        </mxCell>
        <mxCell id="PgFo0dPPJx95uKujKs5k-44" value="" style="endArrow=classic;html=1;rounded=0;" edge="1" parent="1">
          <mxGeometry width="50" height="50" relative="1" as="geometry">
            <mxPoint x="295" y="600" as="sourcePoint" />
            <mxPoint x="295" y="630" as="targetPoint" />
          </mxGeometry>
        </mxCell>
        <mxCell id="PgFo0dPPJx95uKujKs5k-45" value="" style="endArrow=classic;html=1;rounded=0;" edge="1" parent="1">
          <mxGeometry width="50" height="50" relative="1" as="geometry">
            <mxPoint x="480" y="310" as="sourcePoint" />
            <mxPoint x="450" y="350" as="targetPoint" />
          </mxGeometry>
        </mxCell>
        <mxCell id="PgFo0dPPJx95uKujKs5k-46" value="" style="endArrow=classic;html=1;rounded=0;" edge="1" parent="1">
          <mxGeometry width="50" height="50" relative="1" as="geometry">
            <mxPoint x="590" y="300" as="sourcePoint" />
            <mxPoint x="620" y="350" as="targetPoint" />
          </mxGeometry>
        </mxCell>
        <mxCell id="PgFo0dPPJx95uKujKs5k-47" value="" style="endArrow=classic;html=1;rounded=0;" edge="1" parent="1">
          <mxGeometry width="50" height="50" relative="1" as="geometry">
            <mxPoint x="450" y="410" as="sourcePoint" />
            <mxPoint x="480" y="445" as="targetPoint" />
          </mxGeometry>
        </mxCell>
        <mxCell id="PgFo0dPPJx95uKujKs5k-48" value="" style="endArrow=classic;html=1;rounded=0;" edge="1" parent="1">
          <mxGeometry width="50" height="50" relative="1" as="geometry">
            <mxPoint x="500" y="500" as="sourcePoint" />
            <mxPoint x="490" y="530" as="targetPoint" />
          </mxGeometry>
        </mxCell>
        <mxCell id="PgFo0dPPJx95uKujKs5k-49" value="" style="endArrow=none;html=1;rounded=0;" edge="1" parent="1">
          <mxGeometry width="50" height="50" relative="1" as="geometry">
            <mxPoint x="279" y="80" as="sourcePoint" />
            <mxPoint x="279" y="60" as="targetPoint" />
          </mxGeometry>
        </mxCell>
      </root>
    </mxGraphModel>
  </diagram>
  <diagram id="smQfwuNEDCIJoKPN7UJS" name="Leht-2">
    <mxGraphModel dx="996" dy="573" grid="1" gridSize="10" guides="1" tooltips="1" connect="1" arrows="1" fold="1" page="1" pageScale="1" pageWidth="583" pageHeight="827" math="0" shadow="0">
      <root>
        <mxCell id="0" />
        <mxCell id="1" parent="0" />
      </root>
    </mxGraphModel>
  </diagram>
</mxfile>
